 <svg xmlns="http://www.w3.org/2000/svg" width="40.001" height="31.667" viewBox="0 0 40.001 31.667">
                                    <g id="apple" transform="translate(-0.006 -53.334)">
                                        <g id="Group_1124" data-name="Group 1124" transform="translate(3.165 55.114)">
                                            <path id="Path_2189" data-name="Path 2189" d="M48.307,76.192c-2.4-.451-7.766,1.383-7.87,1.932s4.23,4.2,6.632,4.656,4.628-.657,4.969-2.477S50.709,76.643,48.307,76.192Z" transform="translate(-40.435 -76.121)" fill="#a0d468" />
                                        </g>
                                        <path id="Path_2190" data-name="Path 2190" d="M172.7,54.755a.833.833,0,0,0-1.179-1.177h0a18.787,18.787,0,0,0-2,2.464c-1.346,1.984-1.947,3.751-1.782,5.254l1.656-.181c-.244-2.239,2.3-5.348,3.3-6.36h0s0,0,0,0Z" transform="translate(-154.599)" fill="#434a54" />
                                        <path id="Path_2191" data-name="Path 2191" d="M167.957,416.235a.833.833,0,1,0,1.179,0A.834.834,0,0,0,167.957,416.235Z" transform="translate(-154.605 -334.324)" fill="#434a54" />
                                        <g id="Group_1125" data-name="Group 1125" transform="translate(0.006 58.901)">
                                            <path id="Path_2192" data-name="Path 2192" d="M13.962,125.72C5.647,122.065.006,127.809.006,135.941s7.676,15.32,13.956,12.489c6.282,2.831,13.956-4.36,13.956-12.489S22.279,122.065,13.962,125.72Z" transform="translate(-0.006 -124.596)" fill="#da4453" />
                                        </g>
                                        <g id="Group_1128" data-name="Group 1128" transform="translate(0.006 58.902)" opacity="0.1">
                                            <g id="Group_1126" data-name="Group 1126" transform="translate(14.79 23.834)">
                                                <path id="Path_2193" data-name="Path 2193" d="M190.147,429.667a7.209,7.209,0,0,1-.834.315,7.173,7.173,0,0,0,2.929.265A7.052,7.052,0,0,1,190.147,429.667Z" transform="translate(-189.313 -429.667)" />
                                            </g>
                                            <g id="Group_1127" data-name="Group 1127" transform="translate(0 0)">
                                                <path id="Path_2194" data-name="Path 2194" d="M1.673,135.945c0-6.093,3.166-10.847,8.253-11.308-6.052-.523-9.921,4.574-9.921,11.308,0,7.241,6.091,13.739,11.862,13.069C6.649,148.428,1.673,142.491,1.673,135.945Z" transform="translate(-0.006 -124.6)" />
                                            </g>
                                        </g>
                                        <g id="Group_1129" data-name="Group 1129" transform="translate(16.674 73.334)">
                                            <path id="Path_2195" data-name="Path 2195" d="M225.011,320.993a11.667,11.667,0,0,0,11.666-11.667H213.345A11.667,11.667,0,0,0,225.011,320.993Z" transform="translate(-213.345 -309.326)" fill="#ed5564" />
                                        </g>
                                        <g id="Group_1130" data-name="Group 1130" transform="translate(18.34 73.334)">
                                            <path id="Path_2196" data-name="Path 2196" d="M244.672,319.326a10,10,0,0,0,10-10h-20A10,10,0,0,0,244.672,319.326Z" transform="translate(-234.672 -309.326)" fill="#ffe7b0" />
                                        </g>
                                        <g id="Group_1131" data-name="Group 1131" transform="translate(22.626 73.334)">
                                            <path id="Path_2197" data-name="Path 2197" d="M295.363,315.16a5.833,5.833,0,0,0,5.834-5.834H289.53A5.833,5.833,0,0,0,295.363,315.16Z" transform="translate(-289.53 -309.326)" fill="#edca8c" />
                                        </g>
                                        <path id="Path_2198" data-name="Path 2198" d="M352.242,309.916a.834.834,0,0,0,1.423-.59H352A.832.832,0,0,0,352.242,309.916Z" transform="translate(-324.492 -235.992)" fill="#434a54" />
                                    </g>
                                </svg>
                            