<svg xmlns="http://www.w3.org/2000/svg" width="40" height="35.573" viewBox="0 0 40 35.573">
                                    <g id="cabbage_1" transform="translate(-0.004 -28.335)">
                                        <path id="Path_2222" data-name="Path 2222" d="M77.215,31.448C57.062,21.718,51.176,37.9,51.176,37.9L53.4,45.518l8.174,2.745,14.244-4.788S90.584,37.9,77.215,31.448Z" transform="translate(-47.174)" fill="#739b3a" />
                                        <path id="Path_2223" data-name="Path 2223" d="M153.244,30.728c1.6-1.124,3.174-2.032,3.563-2.253a19.217,19.217,0,0,0-3.021-.118c-.469.3-.977.64-1.49,1a22.491,22.491,0,0,0-2.751,2.225,6.256,6.256,0,0,0-1.462,1.964c-.012.026-.022.053-.032.079a2.711,2.711,0,0,0-.138.491c-.372,2.163.845,3.359,1.918,4.416a10.048,10.048,0,0,1,1.221,1.357c.238.341.182.531.161.6-.142.49-.946.966-1.311,1.118a.833.833,0,0,0,.634,1.542,4.1,4.1,0,0,0,2.277-2.189,2.305,2.305,0,0,0-.393-2.028A11.331,11.331,0,0,0,151,37.345c-1.029-1.012-1.587-1.621-1.476-2.721a16.559,16.559,0,0,1,7.551.394,6.106,6.106,0,0,1,2.3,1.274l-.006-.006,1.235-1.119c-.122-.134-2.844-3.032-9.922-2.365a.281.281,0,0,0,.027-.027A20.789,20.789,0,0,1,153.244,30.728Z" transform="translate(-136.29 -0.005)" opacity="0.1" />
                                        <path id="Path_2224" data-name="Path 2224" d="M199.432,62.677c-4.047-.56-9.05.818-10.891,3.03s-3.321,5.259-4.952,6.584a10.428,10.428,0,0,1-4.667,1.615l-.7,9.754,16.522-.876,6.1-11.194S203.478,63.238,199.432,62.677Z" transform="translate(-164.294 -31.543)" fill="#81af46" />
                                        <g id="Group_1138" data-name="Group 1138" transform="translate(23.485 34.889)" opacity="0.1">
                                            <path id="Path_2225" data-name="Path 2225" d="M301.4,124.61a.833.833,0,0,1-.4-1.566c4.3-2.318,7.158-10.187,7.186-10.266a.834.834,0,0,1,1.57.562c-.125.348-3.1,8.55-7.965,11.17A.823.823,0,0,1,301.4,124.61Z" transform="translate(-300.562 -112.226)" />
                                        </g>
                                        <path id="Path_2226" data-name="Path 2226" d="M182.47,154.773c-7.289,1.887-9.554,5.834-9.554,5.834s-3.262,16.184,13.311,11.719,13.447-25.857,10.895-24.965C192.511,148.974,189.759,152.886,182.47,154.773Z" transform="translate(-159.163 -109.702)" fill="#8cc153" />
                                        <g id="Group_1139" data-name="Group 1139" transform="translate(20.465 45.288)" opacity="0.1">
                                            <path id="Path_2227" data-name="Path 2227" d="M262.734,259.873a.834.834,0,0,1-.3-1.613c2.012-.768,5.183-2.644,8.862-7.217a40.606,40.606,0,0,0,3.612-5.276.834.834,0,0,1,1.462.8,41.727,41.727,0,0,1-3.756,5.5c-3.147,3.917-6.372,6.526-9.586,7.754A.849.849,0,0,1,262.734,259.873Z" transform="translate(-261.901 -245.335)" />
                                        </g>
                                        <path id="Path_2228" data-name="Path 2228" d="M17.064,156.617c-7.286-6.224-15.548-7.187-16.23-4.133-3.544,15.835,4.37,25.663,21.6,24.179S26.774,164.912,17.064,156.617Z" transform="translate(0 -112.902)" fill="#a0d468" />
                                        <path id="Path_2229" data-name="Path 2229" d="M75.894,249.058a26.062,26.062,0,0,1-7.977-4.936,35.668,35.668,0,0,1-5.531-6.3,39.446,39.446,0,0,1-4.241-7.763.833.833,0,1,0-1.561.581,40.3,40.3,0,0,0,4.407,8.095,37.4,37.4,0,0,0,5.8,6.619,28.926,28.926,0,0,0,5.71,4q1-.035,2.046-.125c.485-.041.945-.092,1.383-.146Z" transform="translate(-52.111 -185.458)" opacity="0.1" />
                                    </g>
                                </svg>
                            