<svg xmlns="http://www.w3.org/2000/svg" width="40" height="35.066" viewBox="0 0 40 35.066">
                                    <g id="eggs" transform="translate(0 -31.579)">
                                        <g id="Group_1146" data-name="Group 1146" transform="translate(20.001 36.989)">
                                            <g id="Group_1145" data-name="Group 1145" transform="translate(0 0)">
                                                <path id="Path_2248" data-name="Path 2248" d="M270.178,102.706c4.059,2.388,5.647,7.217,3.547,10.787s-7.093,4.529-11.152,2.141-8.1-8.658-5.995-12.228S266.12,100.319,270.178,102.706Z" transform="translate(-256.003 -100.821)" fill="#ccd1d9" />
                                            </g>
                                        </g>
                                        <g id="Group_1147" data-name="Group 1147" transform="translate(25.968 36.989)" opacity="0.2">
                                            <path id="Path_2249" data-name="Path 2249" d="M340.6,102.711a15.382,15.382,0,0,0-8.207-1.86,15.152,15.152,0,0,1,6.54,1.86c4.059,2.388,5.647,7.217,3.546,10.787a7.168,7.168,0,0,1-5.6,3.413,7.437,7.437,0,0,0,7.267-3.413C346.242,109.928,344.654,105.1,340.6,102.711Z" transform="translate(-332.389 -100.826)" fill="#fff" />
                                        </g>
                                        <g id="Group_1149" data-name="Group 1149" transform="translate(14.233 31.58)">
                                            <g id="Group_1148" data-name="Group 1148" transform="translate(0 0)">
                                                <path id="Path_2250" data-name="Path 2250" d="M196.637,45.476c-2.04,4.244-6.719,6.231-10.453,4.437s-5.106-6.688-3.068-10.932,7.95-8.793,11.683-7S198.675,41.231,196.637,45.476Z" transform="translate(-182.173 -31.58)" fill="#ffa77b" />
                                            </g>
                                        </g>
                                        <g id="Group_1150" data-name="Group 1150" transform="translate(20.335 31.58)" opacity="0.2">
                                            <path id="Path_2251" data-name="Path 2251" d="M266.806,31.986a4.583,4.583,0,0,0-2.717-.333,4,4,0,0,1,1.051.333c3.733,1.794,3.876,9.25,1.837,13.495a8.767,8.767,0,0,1-6.7,5.047,8.462,8.462,0,0,0,8.362-5.047C270.682,41.236,270.539,33.78,266.806,31.986Z" transform="translate(-260.282 -31.585)" fill="#fff" />
                                        </g>
                                        <g id="Group_1152" data-name="Group 1152" transform="translate(1.671 34.763)">
                                            <g id="Group_1151" data-name="Group 1151" transform="translate(0 0)">
                                                <path id="Path_2252" data-name="Path 2252" d="M35.881,86.183c-1.986,4.269-6.64,6.314-10.4,4.566s-5.189-6.624-3.2-10.893,7.84-8.89,11.6-7.143S37.868,81.914,35.881,86.183Z" transform="translate(-21.388 -72.334)" fill="#e6e9ed" />
                                            </g>
                                        </g>
                                        <g id="Group_1153" data-name="Group 1153" transform="translate(7.781 34.764)" opacity="0.3">
                                            <path id="Path_2253" data-name="Path 2253" d="M105.976,72.718a4.557,4.557,0,0,0-2.659-.309,4,4,0,0,1,.992.309c3.755,1.747,3.99,9.2,2,13.47A8.752,8.752,0,0,1,99.6,91.33a8.443,8.443,0,0,0,8.382-5.141C109.967,81.919,109.731,74.466,105.976,72.718Z" transform="translate(-99.597 -72.34)" fill="#fff" />
                                        </g>
                                        <g id="Group_1154" data-name="Group 1154" transform="translate(0 43.314)">
                                            <path id="Path_2254" data-name="Path 2254" d="M28.767,203.451c11.627-5.076,11.231-20,11.231-20a1.667,1.667,0,0,0-1.666-1.667H1.67A1.668,1.668,0,0,0,0,183.453s-.4,14.922,11.233,20Z" transform="translate(0 -181.786)" fill="#fc6e51" />
                                        </g>
                                        <g id="Group_1155" data-name="Group 1155" transform="translate(0 43.314)" opacity="0.1">
                                            <path id="Path_2255" data-name="Path 2255" d="M1.67,183.453a1.667,1.667,0,0,1,1.666-1.667H1.67A1.668,1.668,0,0,0,0,183.453s-.4,14.922,11.233,20H12.9C1.273,198.375,1.67,183.453,1.67,183.453Z" transform="translate(0 -181.786)" />
                                        </g>
                                        <g id="Group_1157" data-name="Group 1157" transform="translate(24.964 46.752)">
                                            <g id="Group_1156" data-name="Group 1156">
                                                <path id="Path_2256" data-name="Path 2256" d="M334.529,237.153c0,4.708-3.358,8.525-7.5,8.525s-7.5-3.817-7.5-8.525,3.357-11.368,7.5-11.368S334.529,232.444,334.529,237.153Z" transform="translate(-319.53 -225.785)" fill="#ffa77b" />
                                            </g>
                                        </g>
                                        <g id="Group_1158" data-name="Group 1158" transform="translate(31.63 46.752)" opacity="0.2">
                                            <path id="Path_2257" data-name="Path 2257" d="M405.688,225.785a3.921,3.921,0,0,0-.832.091c3.749.807,6.666,6.889,6.666,11.277s-2.917,8-6.666,8.473a6.7,6.7,0,0,0,.832.053c4.142,0,7.5-3.817,7.5-8.525S409.83,225.785,405.688,225.785Z" transform="translate(-404.856 -225.785)" fill="#fff" />
                                        </g>
                                    </g>
                                </svg>
                            