<svg xmlns="http://www.w3.org/2000/svg" width="40" height="26.665" viewBox="0 0 40 26.665">
                                    <g id="meat_steak" transform="translate(-0.006 -85.349)">
                                        <g id="Group_1122" data-name="Group 1122" transform="translate(0.006 90.347)">
                                            <path id="Path_2177" data-name="Path 2177" d="M40,154.868,37.875,153.3c-3.368-4.373-10.32-5.892-17.869-.643a6.89,6.89,0,0,1-1.162.643l-18.838.09V158.3c0,7.052,5,12.693,19.421,12.693,12.742,0,20.579-2.82,20.579-11.283C40.006,159.144,40,154.868,40,154.868Z" transform="translate(-0.006 -149.329)" fill="#da4453" />
                                        </g>
                                        <path id="Path_2178" data-name="Path 2178" d="M406.99,329.242v-6.135h-1.666v6.711C405.908,329.644,406.463,329.453,406.99,329.242Z" transform="translate(-373.652 -219.183)" opacity="0.1" />
                                        <path id="Path_2179" data-name="Path 2179" d="M342.992,349.412v-5.868h-1.666v6.107C341.9,349.582,342.453,349.5,342.992,349.412Z" transform="translate(-314.654 -238.024)" opacity="0.1" />
                                        <path id="Path_2180" data-name="Path 2180" d="M278.993,357.311v-5.768h-1.666v5.837C277.895,357.363,278.449,357.341,278.993,357.311Z" transform="translate(-255.655 -245.398)" opacity="0.1" />
                                        <path id="Path_2181" data-name="Path 2181" d="M215,357.4v-5.857h-1.667v5.795C213.869,357.367,214.425,357.389,215,357.4Z" transform="translate(-196.657 -245.398)" opacity="0.1" />
                                        <path id="Path_2182" data-name="Path 2182" d="M151,352.563v-5.848H149.33v5.564Q150.132,352.438,151,352.563Z" transform="translate(-137.658 -240.947)" opacity="0.1" />
                                        <path id="Path_2183" data-name="Path 2183" d="M87,329.6v-6.5H85.332v5.806A17.618,17.618,0,0,0,87,329.6Z" transform="translate(-78.66 -219.182)" opacity="0.1" />
                                        <g id="Group_1123" data-name="Group 1123" transform="translate(0.006 85.348)">
                                            <path id="Path_2184" data-name="Path 2184" d="M20.006,88.68c-5.831,4.053-20-1.41-20,5.642s5,12.694,19.421,12.694c12.742,0,20.579-2.821,20.579-11.284S30.594,81.319,20.006,88.68Z" transform="translate(-0.006 -85.348)" fill="#ed5564" />
                                        </g>
                                        <path id="Path_2185" data-name="Path 2185" d="M77.168,227.331c-1.355,0-2.5-.763-2.5-1.666S75.813,224,77.168,224s2.5.763,2.5,1.666S78.523,227.331,77.168,227.331Z" transform="translate(-68.829 -127.818)" fill="#ccd1d9" />
                                        <path id="Path_2186" data-name="Path 2186" d="M67.337,213.328c-1.841,0-3.333,1.119-3.333,2.5s1.492,2.5,3.333,2.5,3.333-1.119,3.333-2.5S69.178,213.328,67.337,213.328Zm0,3.334c-1.034,0-1.667-.539-1.667-.834s.633-.834,1.667-.834,1.667.54,1.667.834S68.371,216.662,67.337,216.662Z" transform="translate(-58.998 -117.981)" fill="#e6e9ed" />
                                        <path id="Path_2187" data-name="Path 2187" d="M140.463,285.4a38.378,38.378,0,0,0,8.447.83q2.084,0,3.989-.105l-4.694-6.375Z" transform="translate(-129.484 -179.212)" fill="#f5f7fa" />
                                        <path id="Path_2188" data-name="Path 2188" d="M130.484,152.1a45.181,45.181,0,0,1-1.8-6.694c-.535.1-1.089.164-1.657.215a46.265,46.265,0,0,0,1.88,7.01q.565,1.589,1.216,3.014a15.276,15.276,0,0,1-4.648,3.689,38.43,38.43,0,0,1-3.626,1.84,25.657,25.657,0,0,0,2.6.612,23.944,23.944,0,0,0,6.481-4.5q.473.892.981,1.7a19.379,19.379,0,0,0,2.625,3.346c.808-.029,1.594-.073,2.354-.131C133.7,159.7,131.66,155.4,130.484,152.1Z" transform="translate(-112.321 -55.366)" fill="#e6e9ed" />
                                    </g>
                                </svg>
                            