<svg xmlns="http://www.w3.org/2000/svg" width="12.062" height="12" viewBox="0 0 12.062 12"><g data-name="Group 14"><path data-name="Path 936" d="M6.302.131l.77.879L8.224.521a.344.344 0 0 1 .461.215l.352 1.133 1.25.022a.344.344 0 0 1 .335.383l-.139 1.18 1.133.529a.343.343 0 0 1 .165.456c-.154.32-.434.732-.623 1.05l.821.945a.345.345 0 0 1-.062.505l-.969.685.365 1.2a.343.343 0 0 1-.263.436l-1.162.232-.153 1.241a.345.345 0 0 1-.442.288l-1.133-.257-.649 1.069a.344.344 0 0 1-.5.1l-.952-.711-1.024.717a.343.343 0 0 1-.5-.115l-.579-1.035-1.229.239a.344.344 0 0 1-.408-.327L2.213 9.54.995 9.258a.344.344 0 0 1-.249-.445l.382-1.124-1-.753a.344.344 0 0 1-.025-.528l.787-.851-.606-1.094A.344.344 0 0 1 .45 3.98l1.089-.468-.109-1.246a.346.346 0 0 1 .377-.372l1.156.016.408-1.183a.345.345 0 0 1 .487-.192l1.061.489.853-.914a.344.344 0 0 1 .53.021zm-3.086 6a.491.491 0 0 1 .694-.694l1.536 1.536 2.69-2.982a.49.49 0 0 1 .728.655l-3.02 3.347a.49.49 0 0 1-.727.037z" fill="#3997f0" fill-rule="evenodd"/></g></svg>