<svg xmlns="http://www.w3.org/2000/svg" width="35" height="35" viewBox="0 0 35 35"><g data-name="noun_Zoom In_457134" fill="#fff"><path data-name="Path 2124" d="M34.533 32.278l-9.022-9.022a14.33 14.33 0 1 0-11.2 5.367 14.15 14.15 0 0 0 8.944-3.15l9.022 9.061a1.557 1.557 0 0 0 1.129.466 1.624 1.624 0 0 0 1.128-.467 1.6 1.6 0 0 0-.001-2.255zm-20.222-6.806a11.142 11.142 0 1 1 11.161-11.161 11.12 11.12 0 0 1-11.161 11.161z"/><path data-name="Path 2125" d="M19.094 12.716h-3.189V9.527a1.595 1.595 0 1 0-3.189 0v3.189H9.527a1.595 1.595 0 1 0 0 3.189h3.189v3.189a1.595 1.595 0 0 0 3.189 0v-3.189h3.189a1.577 1.577 0 0 0 1.594-1.594 1.6 1.6 0 0 0-1.594-1.595z"/></g></svg>